<?xml version="1.0" encoding="utf-8"?>
<!-- Generator: Adobe Illustrator 19.0.0, SVG Export Plug-In . SVG Version: 6.00 Build 0)  -->
<svg version="1.1" id="Warstwa_1" xmlns="http://www.w3.org/2000/svg" xmlns:xlink="http://www.w3.org/1999/xlink" x="0px" y="0px"
	 viewBox="0 0 960 560" style="enable-background:new 0 0 960 560;" xml:space="preserve">
<style type="text/css">
	.st0{clip-path:url(#SVGID_2_);}
	.st1{clip-path:url(#SVGID_4_);}
	.st2{fill:#161616;}
	.st3{fill:none;}
	.st4{fill:#FFFFFF;}
	.st5{fill:#3A3A3A;}
	.st6{fill:#B7B7B7;}
</style>
<g>
	<g>
		<defs>
			<rect id="SVGID_1_" width="955.1" height="560"/>
		</defs>
		<clipPath id="SVGID_2_">
			<use xlink:href="#SVGID_1_"  style="overflow:visible;"/>
		</clipPath>
		<g id="XMLID_44_" class="st0">
			<g id="XMLID_2_">
				<defs>
					<rect id="SVGID_3_" x="-178.6" y="-1836.2" width="4601.1" height="2446.1"/>
				</defs>
				<clipPath id="SVGID_4_">
					<use xlink:href="#SVGID_3_"  style="overflow:visible;"/>
				</clipPath>
				<g id="XMLID_3_" class="st1">
					<path id="XMLID_35_" class="st2" d="M180.8,492.8c-54.5,0-108.8-0.6-163.3-0.6c-4.9,0-6.8-1.9-6.5-6.8c0.3-8.4,0-16.6,0-25
						c-1.6-76-3.2-151.9-4.5-227.6c-0.3-14.6-2.6-13.3,13.3-13.3c300.6,0,601.2,0,901.8,0c11.4,0,11.4,0,12.3,11.7
						c1,15.9,1,15.9-15.3,17.5c-9.1,1-11,2.9-11,11.7c0,25.3,0.6,50.3-0.3,75.6c-0.6,13,5.2,20.1,15.6,24.7
						c12.7,5.5,19.2,15.3,21.4,28.2c5.2,26.9,3.6,54.2,0.3,81.5c-0.6,5.8-2.9,11.7-5.5,17.2c-2.6,5.5-7.8,7.5-14,6.8
						c-5.8-0.6-9.1-4.2-10.7-9.4c-1.6-4.9-2.6-9.7-3.2-14.6c-1.9-11.7-5.8-22.4-13-31.8c-32.8-41.2-89.9-43.2-125-3.6
						c-14,15.9-23.4,34.4-30.2,54.5c-1.9,5.8-4.9,7.5-10.7,7.5c-22.1,0.3-43.8,1.3-65.9,1.3c-93.2-0.3-186.7-1-279.8-1.3
						c-14.3,0-14.3-0.3-15.3-14c-2.3-39.9-29.5-68.2-72.4-72.7c-33.1-3.6-72.1,13.6-84.1,53.6c-2.6,8.8-3.6,18.2-5.5,28.2
						C200,491.8,190.2,492.8,180.8,492.8z M174.3,453.8c0-62.7,0-125.6,0-188.3c0-7.8-2.3-9.7-9.7-9.7c-37.3,0.3-74.7,0.3-112,0
						c-7.1,0-9.7,1.6-9.7,9.1c0.3,63,0.3,126,0,189.3c0,6.5,1.3,9.4,8.8,9.1c38-0.3,76.3,0,114.3-0.3c2.6,0,4.9-0.3,8.1-0.6
						C174.3,459,174.3,456.4,174.3,453.8z M517.8,274c-8.8,0-11.4,2.6-11.4,11c0,20.1,0,40.3,0,60.4c0,9.7,3.6,13.3,13,13.3
						c35.1,0,70.1,0,105.2,0c8.4,0,11-2.3,11-10.4c0.3-21.8,0-43.2,0-64.9c0-7.5-4.2-9.4-10.7-9.4c-18.2,0-36.4,0-54.5,0
						C552.9,274,535.3,274,517.8,274z M244.1,274c-8.8,0-11.4,2.3-11.4,11c0,20.5,0,40.9,0,61c0,9.4,3.6,12.7,13,12.7
						c35.4,0,70.4,0,105.8,0c7.8,0,10.4-2.3,10.4-10.4c0.3-21.8,0-43.2,0-64.9c0-7.5-4.2-9.7-10.7-9.7c-18.2,0-36.4,0-54.5,0l0,0
						C279.5,274,261.7,274,244.1,274z M656.7,274c-10.1,0-12.3,2.3-12.3,11.7c0,20.1,0,40.3,0,60.4c0,9.4,3.6,12.7,13,12.7
						c34.7,0,69.5,0,104.2,0c9.7,0,12-1.9,12-11.7c0-20.8,0-41.9,0-62.7c0-7.8-2.6-10.4-10.4-10.4c-18.5,0-36.7,0-55.2,0l0,0
						C690.8,274,673.6,274,656.7,274z M381.8,274c-10.4,0-12.7,1.9-12.7,12.3c0,19.8,0,39.3,0,59.1c0,10.4,3.2,13.6,13.3,13.6
						c34.7,0,69.5,0,104.5,0c8.8,0,11.4-2.3,11.4-11c0-21.1,0-42.5,0-63.6c0-7.8-2.3-10.1-10.7-10.4c-18.2,0-36.4,0-54.5,0
						C416.2,274,399,274,381.8,274z M881.7,359.7c11.7,0,14.6-2.9,14-14.3c-1.6-26.9-3.6-54.2-5.2-81.2c-0.3-6.8-2.9-9.1-9.7-8.8
						c-28.2,1.9-55.8,6.5-82.5,16.6c-6.5,2.3-9.1,6.5-9.1,13.6c-0.3,22.1-1.6,44.2-2.9,66.6c-0.3,5.8,1.3,8.1,7.5,7.8
						c15.3-0.3,30.2,0,45.4,0l0,0C852.8,359.7,867.1,359.7,881.7,359.7z"/>
					<g id="XMLID_25_">
						<g id="XMLID_26_">
							<path id="XMLID_27_" class="st2" d="M930.1,181.5c-3.2-40.6-5.8-81.2-19.8-119.8c-4.2-11.4-10.1-22.7-17.2-32.5
								C882.4,14,866.8,8.8,848.3,8.8c-78.6,1-156.8,2.3-235.4,2.3c-123.4,0-246.7-1.3-370.1-2.3c-30.8-0.3-61.7-1-92.2-2.3
								C95.1,3.9,57.5,31.8,30.2,76.9c-17.5,29.5-22.1,62.3-23,96.1c-0.3,9.4,0,18.8-1,27.9c-0.6,6.8,1.9,8.4,8.4,8.4
								c87.7-0.3,175.6,0,263.3,0c214.3,0,428.8,0,643.1,0h10.7C931.4,199.3,931.1,190.2,930.1,181.5z M234.1,101
								c0,10.1-4.5,14.6-14.6,14.6c-25.6,0-51.3,0-77.3,0c-26.3,0-52.6,0-78.6-0.3c-2.9,0-8.1-2.3-8.8-4.2c-1.9-6.5-3.6-14-2.6-20.5
								c3.6-25.3,17.5-43.5,40.9-53.9c6.2-2.6,12.7-5.5,19.2-5.8c37-0.6,74-0.3,111-0.3c9.1,0,10.4,1.3,10.7,10.4
								C234.1,61,234.1,81.2,234.1,101z M373.7,104.5c0,8.8-2.6,11.4-11.4,11.4c-34.7,0-69.5,0-104.2,0c-10.4,0-13.6-3.2-13.6-13.3
								c0-19.8,0-39.9,0-59.7c0-9.4,2.6-12,12.3-12c17.5,0,35.4,0,52.9,0c17.9,0,35.7,0,53.6,0c6.5,0,10.7,2.3,10.7,9.7
								C373.7,61.7,373.7,83.1,373.7,104.5z M512,106.2c0,6.5-2.9,10.1-10.4,9.7c-17.5-0.3-35.4,0-52.9,0s-34.7,0-52.3,0
								c-9.7,0-13.3-3.2-13.3-13c0-20.1,0-40.3,0-60.4c0-9.4,2.3-11.4,11.7-11.7c20.1,0,40.3,0,60.4,0c15.3,0,30.8,0,46.1,0
								c5.5,0,10.4,1,10.4,8.1C512,61,512,83.8,512,106.2z M651.5,105.5c0,7.8-2.9,10.4-10.7,10.4c-17.5,0-35.4,0-52.9,0
								c-17.5,0-34.7,0-52.3,0c-10.1,0-13-3.2-13-13c0-16.6,0-32.8,0-49.3c0-23.7-1.3-23,22.7-22.7c31.5,0,63,0,94.5,0
								c6.2,0,12,0.6,12,9.1C651.5,61.7,651.5,83.4,651.5,105.5z M789.5,104.5c0,8.8-2.6,11-11.4,11c-17.5,0-34.7,0-52.3,0
								c-17.9,0-35.7,0-53.6,0c-8.1,0-12-3.6-12-11.4c-0.3-21.4,0-42.9,0-64.3c0-6.5,3.2-9.7,9.7-9.7c36.4,0,73,0,109.4,0
								c6.5,0,9.7,2.9,9.7,9.7C789.5,61.7,789.8,83.1,789.5,104.5z M904.4,115.6c-15.3,0.3-30.8,0-46.1,0l0,0c-14.3,0-28.6,0-43.2,0
								c-10.4,0-15.9-5.2-15.9-15.3c-0.3-20.1-0.3-40.3-0.3-60.4c0-7.1,3.9-9.7,10.4-9.7c16.2,0,32.5,1,48.4-0.3
								c14.9-1.3,25,6.2,33.4,16.6c3.2,4.2,6.2,8.8,8.1,13.6c5.2,14.6,10.1,29.5,14.6,44.5C915.8,111.4,911.9,115.6,904.4,115.6z"/>
						</g>
					</g>
					<path id="XMLID_22_" d="M218.8,485.7c0-40.6,32.5-73.4,72.7-73.4c39.6,0,71.4,32.1,71.7,71.4c0.3,41.6-29.5,72.4-70.1,72.4
						C250.3,556.4,218.8,526.2,218.8,485.7z M262.3,484c-0.3,16.2,13,29.5,28.9,29.5c15.6,0,28.9-13,29.2-28.9
						c0.3-16.2-13-29.2-29.2-29.2C275.3,455.5,262.6,467.8,262.3,484z"/>
					<path id="XMLID_19_" d="M760.3,485c0-39.9,32.8-72.4,72.7-72.4s71.7,32.1,71.7,72.1c0,40.3-31.5,71.7-72.1,71.7
						C792.1,556.1,760,524.6,760.3,485z M803.8,485c0.3,15.9,13.3,28.6,29.2,28.6c15.6,0,28.9-13.3,29.2-28.9
						c0-16.2-13-29.2-29.2-29.2C816.5,455.5,803.8,468.5,803.8,485z"/>
					<g id="_x38_">
						<path id="XMLID_18_" class="st3" d="M153.2,148.7c3.6,0,6.8,1,8.4,2.6c-0.6-2.6-2.9-4.9-5.8-8.1c-0.6,0.3-1,0.3-1.9,0.3
							c-0.6,0-1.6,0-1.9-0.3c-2.9,3.2-5.2,5.2-5.8,7.5l0,0C147.4,149.7,150,148.7,153.2,148.7z"/>
						<path id="XMLID_17_" class="st3" d="M151.3,163.9c-2.9,0.6-6.5,5.2-7.1,8.8c-1,5.8,3.6,8.8,9.4,9.4c5.5-0.3,9.4-2.3,10.1-8.1
							C163.6,169.1,156.8,162.6,151.3,163.9z"/>
						<path id="XMLID_13_" class="st4" d="M162.3,161.7c6.8-8.1,7.8-14.6,2.3-19.8s-15.9-4.9-21.4,0.3c-5.2,5.5-4.5,11.4,2.3,18.8
							c-8.4,8.8-9.4,16.6-2.9,22.7c6.2,5.8,17.5,5.5,23.4-0.3C171.7,177.3,170.8,169.5,162.3,161.7z M151.6,143.2
							c0.6,0.3,1.3,0.3,1.9,0.3c0.6,0,1.3,0,1.9-0.3c2.9,3.2,5.2,5.5,5.8,8.1c-1.6-1.6-4.5-2.6-8.4-2.6c-2.9,0-5.8,0.6-7.5,1.9l0,0
							C146.4,148.4,148.7,146.4,151.6,143.2z M153.6,182.1c-5.5-0.6-10.1-3.6-9.4-9.4c0.3-3.2,4.2-7.8,7.1-8.8
							c5.5-1.3,12.3,5.2,12,9.7C163,179.8,159.1,181.8,153.6,182.1z"/>
						<path id="XMLID_12_" class="st5" d="M153.6,182.1c-5.5-0.6-10.1-3.6-9.4-9.4c0.3-3.2,4.2-7.8,7.1-8.8c5.5-1.3,12.3,5.2,12,9.7
							C163,179.8,159.1,181.8,153.6,182.1z"/>
						<circle id="XMLID_11_" class="st5" cx="153.9" cy="150.6" r="8.1"/>
					</g>
					<path id="_x32_" class="st4" d="M127.9,183.1c-1.6,1.3-3.2,3.6-4.9,3.6c-9.1,0.3-18.2,0.3-29.9,0.3c2.6-4.5,3.9-8.1,6.2-10.7
						c4.9-5.2,10.4-9.4,15.6-14.3c3.6-3.6,7.1-9.1,2.9-13.3c-2.6-2.9-8.4-2.9-12.7-3.6c-2.3-0.3-4.9,1.3-7.5,1.9
						c-1.9-4.2-0.6-6.5,3.9-7.1c1.6-0.3,3.6-1,5.2-1c6.8-0.6,13.6,0,17.2,6.5c3.9,6.8,1.3,13.3-3.6,18.8
						c-5.2,5.5-10.7,10.4-17.2,16.6c8.1,0,15.6,0,23,0C126.9,181.1,127.3,182.1,127.9,183.1z"/>
					<path id="XMLID_10_" d="M128.9,258.4c0,67.5,0,134.7,0,202.2c0.6,0,1,0,1.6,0c0-67.5,0-134.7,0-202.2
						C130.2,258.4,129.5,258.4,128.9,258.4z"/>
					<path id="XMLID_7_" class="st6" d="M291.2,462c12.7,0,22.7,9.7,23,22.1c0.3,12.7-10.4,23-23,23c-12.3,0-22.4-10.1-22.4-22.7
						C268.8,471.7,278.5,462,291.2,462z M276.3,484.4c0,8.1,6.8,14.9,14.9,14.9c8.4,0,15.3-7.1,15.3-15.6
						c-0.3-8.4-6.8-14.6-15.3-14.6C282.8,469.4,276.3,476.2,276.3,484.4z"/>
					<path id="XMLID_4_" class="st6" d="M833,462c12.7,0,22.7,9.7,23,22.4c0.3,12.7-10.7,23.4-23,23c-12.3-0.3-22.4-10.4-22.4-22.7
						C810.3,471.7,820,462,833,462z M833,469.4c-8.8,0-15.3,6.5-14.9,15.3c0.3,8.4,6.8,14.6,14.9,14.6s14.6-6.8,14.6-14.9
						C848,475.9,841.5,469.4,833,469.4z"/>
				</g>
			</g>
		</g>
	</g>
</g>
</svg>
