<?xml version="1.0" encoding="utf-8"?>
<!-- Generator: Adobe Illustrator 19.0.0, SVG Export Plug-In . SVG Version: 6.00 Build 0)  -->
<svg version="1.1" id="Warstwa_1" xmlns="http://www.w3.org/2000/svg" xmlns:xlink="http://www.w3.org/1999/xlink" x="0px" y="0px"
	 viewBox="0 0 960 560" style="enable-background:new 0 0 960 560;" xml:space="preserve">
<style type="text/css">
	.st0{fill:#6D6E71;}
</style>
<path id="XMLID_10_" class="st0" d="M609.7,279.6c2.9,0.1,5.4-2.3,5.3-5.3c0-3.1-2.5-5.4-5.5-5.2c-1.2,0.1-2.2,0.5-3.1,1.1
	c0-0.4,0-0.9-0.1-1.3h0.1l-0.1-0.2c0-0.2,0-0.3,0-0.5l0.1-0.2h-0.1c-0.3-4.5-0.8-9-1.5-13.4l0.1-0.1l-0.1-0.2c0-0.2-0.1-0.3-0.1-0.5
	l0,0c1,0.5,2.1,0.6,3.2,0.5c2.9-0.5,4.8-3.3,4.2-6.3c-0.6-3-3.5-4.8-6.4-4.1c-1.1,0.3-2.1,0.9-2.8,1.7c-0.4-1.7-0.9-3.4-1.4-5.1
	l0.1-0.1l-0.1-0.1c0-0.2-0.1-0.3-0.1-0.5v-0.2h-0.1c-1-3.3-2.1-6.5-3.3-9.6c1,0.3,2.2,0.2,3.3-0.2c2.7-1,4.1-4.2,2.9-7s-4.4-4-7-2.8
	c-1.1,0.5-1.9,1.3-2.4,2.2c-1.3-2.8-2.8-5.6-4.3-8.3l0.1-0.1l-0.2-0.1c-0.1-0.2-0.2-0.3-0.3-0.5V213H590c-1-1.8-2.1-3.5-3.2-5.2
	c1.1,0.1,2.2-0.2,3.2-0.8c2.5-1.5,3.2-4.9,1.5-7.4s-5.1-3.1-7.4-1.3c-0.9,0.7-1.6,1.6-1.9,2.7c-2.6-3.6-5.5-7.1-8.5-10.4v-0.1
	l-0.1-0.1c-0.1-0.1-0.3-0.3-0.4-0.4v-0.2h-0.1c-0.5-0.5-0.9-1-1.4-1.5c1.1-0.2,2.1-0.6,2.9-1.4c2.1-2,2.2-5.4,0-7.6
	c-2.2-2.1-5.6-2-7.6,0.2c-0.8,0.9-1.2,1.9-1.3,3c-0.7-0.7-1.5-1.4-2.3-2v-0.1h-0.1c-0.2-0.1-0.3-0.3-0.5-0.4v-0.1h-0.1
	c-3.1-2.7-6.4-5.3-9.8-7.7c1-0.4,1.9-1,2.6-2c1.7-2.4,1.1-5.7-1.5-7.4c-2.6-1.7-5.9-0.9-7.4,1.6c-0.6,1-0.8,2.1-0.7,3.2
	c-2-1.2-4.1-2.4-6.1-3.5V164h-0.1c-0.2-0.1-0.4-0.2-0.6-0.3l-0.1-0.1l0,0c-2.5-1.3-5-2.5-7.6-3.7c0.9-0.5,1.7-1.4,2.2-2.4
	c1.2-2.7,0-5.8-2.9-7c-2.8-1.1-6,0.3-6.9,3c-0.4,1.1-0.4,2.2-0.1,3.3c-3.5-1.3-7-2.4-10.6-3.3l0,0H513c-0.3-0.1-0.5-0.1-0.8-0.2l0,0
	l0,0c-1.4-0.4-2.8-0.7-4.3-1c0.8-0.7,1.4-1.7,1.7-2.8c0.7-2.8-1.2-5.7-4.2-6.3c-3-0.6-5.8,1.4-6.2,4.3c-0.2,1.2,0.1,2.3,0.5,3.2
	c-0.3,0-0.5-0.1-0.8-0.1l0,0l0,0c-0.3,0-0.5-0.1-0.8-0.1l0,0l0,0c-4.4-0.6-8.9-1-13.5-1.2l0,0l0,0c-0.3,0-0.6,0-0.9,0l0,0l0,0
	c-0.1,0-0.2,0-0.3,0c0.6-0.9,1-1.9,1.1-3.1c0.1-2.9-2.3-5.4-5.4-5.3c-3.1,0-5.4,2.5-5.2,5.5c0.1,1.2,0.5,2.2,1.2,3.1
	c-1.9,0.1-3.8,0.2-5.7,0.4l0,0l0,0c-3.6,0.3-7.1,0.8-10.6,1.4c0.5-1,0.6-2.1,0.5-3.2c-0.5-2.9-3.3-4.8-6.3-4.2
	c-3,0.6-4.8,3.5-4.1,6.4c0.3,1.1,0.9,2.1,1.7,2.8c-5.4,1.3-10.6,3-15.7,4.9c0.3-1,0.2-2.2-0.2-3.3c-1-2.7-4.2-4.1-7-2.9
	s-4,4.4-2.8,7c0.5,1.1,1.3,1.9,2.2,2.4c-5,2.3-9.8,5-14.4,7.9c0.1-1.1-0.2-2.2-0.8-3.2c-1.5-2.5-4.9-3.2-7.4-1.5s-3.1,5.1-1.3,7.4
	c0.7,0.9,1.6,1.6,2.7,1.9c-4.4,3.2-8.6,6.8-12.6,10.6c-0.2-1.1-0.6-2.1-1.4-2.9c-2-2.1-5.4-2.2-7.6,0c-2.1,2.2-2,5.6,0.2,7.6
	c0.9,0.8,1.9,1.2,3,1.3c-3.7,4-7.1,8.3-10.3,12.8c-0.4-1-1-1.9-2-2.6c-2.4-1.7-5.7-1.1-7.4,1.5s-0.9,5.9,1.6,7.4
	c1,0.6,2.1,0.8,3.2,0.7c-2.8,4.7-5.4,9.5-7.6,14.6c-0.5-0.9-1.4-1.7-2.4-2.2c-2.7-1.2-5.8,0-7,2.9c-1.1,2.8,0.3,6,3,6.9
	c1.1,0.4,2.2,0.4,3.3,0.1c-1.9,5.1-3.4,10.4-4.6,15.8c-0.7-0.8-1.7-1.4-2.8-1.7c-2.8-0.7-5.7,1.2-6.3,4.2s1.4,5.8,4.3,6.2
	c1.2,0.2,2.3-0.1,3.2-0.5c-0.8,5.4-1.3,10.8-1.4,16.4c-0.9-0.6-1.9-1-3.1-1.1c-2.9-0.1-5.4,2.3-5.3,5.3c0,3.1,2.5,5.4,5.5,5.2
	c1.2-0.1,2.2-0.5,3.1-1.1c0.2,5.5,0.8,11,1.8,16.3c-1-0.5-2.1-0.6-3.2-0.5c-2.9,0.5-4.8,3.3-4.2,6.3s3.5,4.8,6.4,4.1
	c1.1-0.3,2.1-0.9,2.8-1.7c1.3,5.4,3,10.6,4.9,15.7c-1-0.3-2.2-0.2-3.3,0.2c-2.7,1-4.1,4.2-2.9,7c1.2,2.8,4.4,4,7,2.8
	c1.1-0.5,1.9-1.3,2.4-2.2c2.3,5,5,9.8,7.9,14.4c-1.1-0.1-2.2,0.2-3.2,0.8c-2.5,1.5-3.2,4.9-1.5,7.4s5.1,3.1,7.4,1.3
	c0.9-0.7,1.6-1.6,1.9-2.7c3.3,4.4,6.8,8.6,10.6,12.6c-1.1,0.2-2.1,0.6-2.9,1.4c-2.1,2-2.2,5.4,0,7.6c2.2,2.1,5.6,2,7.6-0.2
	c0.8-0.9,1.2-1.9,1.3-3c4,3.7,8.3,7.1,12.8,10.3c-1,0.4-1.9,1-2.6,2c-1.7,2.4-1.1,5.7,1.5,7.4s5.9,0.9,7.4-1.6
	c0.6-1,0.8-2.1,0.7-3.2c4.7,2.8,9.5,5.4,14.6,7.6c-0.9,0.5-1.7,1.4-2.2,2.4c-1.2,2.7,0,5.8,2.9,7c2.8,1.1,6-0.3,6.9-3
	c0.4-1.1,0.4-2.2,0.1-3.3c5.1,1.9,10.4,3.4,15.8,4.6c-0.8,0.7-1.4,1.7-1.7,2.8c-0.3,1.3-0.1,2.7,0.6,3.8h-66.3c-1,0-1.8,0.8-1.8,1.8
	s0.8,1.8,1.8,1.8h55.1v9.8h79.5v-9.8h55.1c1,0,1.8-0.8,1.8-1.8s-0.8-1.8-1.8-1.8h-64.1c1-1.2,1.4-2.8,0.9-4.4
	c-0.3-1.1-0.9-2.1-1.7-2.8c0.6-0.1,1.2-0.3,1.8-0.4l0,0l0,0c0.3-0.1,0.5-0.1,0.8-0.2h0.1l0,0c4.4-1.2,8.7-2.6,12.9-4.2l0,0v-0.1h0.1
	c-0.3,1-0.2,2.2,0.2,3.3c1,2.7,4.2,4.1,7,2.9c2.8-1.2,4-4.4,2.8-7c-0.5-1-1.3-1.9-2.2-2.4c1.8-0.8,3.5-1.7,5.3-2.6l0,0l0.1-0.1
	c0.2-0.1,0.4-0.2,0.6-0.3h0.1v-0.1c2.8-1.5,5.6-3.1,8.3-4.8c-0.1,1.1,0.2,2.2,0.8,3.2c1.5,2.5,4.9,3.2,7.4,1.5s3.1-5.1,1.3-7.4
	c-0.7-0.9-1.6-1.6-2.7-1.9c2.7-2,5.3-4,7.8-6.2h0.1v-0.1c0.2-0.1,0.3-0.3,0.5-0.4h0.1v-0.1c1.4-1.2,2.8-2.5,4.1-3.8
	c0.2,1.1,0.6,2.1,1.4,2.9c2,2.1,5.4,2.2,7.6,0c2.1-2.2,2-5.6-0.2-7.6c-0.9-0.8-1.9-1.2-3-1.3c0.1-0.1,0.2-0.2,0.2-0.2h0.1v-0.1
	c3-3.3,5.9-6.8,8.5-10.4h0.1v-0.2c0.1-0.2,0.2-0.3,0.3-0.5l0.2-0.1v-0.1c0.3-0.4,0.6-0.8,0.9-1.2c0.4,1,1,1.9,2,2.6
	c2.4,1.7,5.7,1.1,7.4-1.5c1.7-2.6,0.9-5.9-1.6-7.4c-1-0.6-2.1-0.8-3.2-0.7c0.6-1,1.2-2,1.8-3.1h0.1V338c0.1-0.2,0.2-0.3,0.3-0.5
	l0.2-0.1l-0.1-0.1c1.9-3.5,3.7-7,5.3-10.6c0.5,0.9,1.4,1.7,2.4,2.2c2.7,1.2,5.8,0,7-2.9c1.1-2.8-0.3-6-3-6.9
	c-1.1-0.4-2.2-0.4-3.3-0.1c0.9-2.4,1.7-4.8,2.4-7.2h0.1v-0.2c0-0.2,0.1-0.3,0.2-0.5l0.1-0.1l-0.1-0.1c0.7-2.5,1.4-5,1.9-7.6
	c0.7,0.8,1.7,1.4,2.8,1.7c2.8,0.7,5.7-1.2,6.3-4.2c0.6-3-1.4-5.8-4.3-6.2c-1.2-0.2-2.3,0.1-3.2,0.5c0.6-3.8,1-7.7,1.2-11.6h0.1
	l-0.1-0.2c0-0.2,0-0.3,0-0.5l0.1-0.2h-0.1c0.1-1.3,0.1-2.5,0.1-3.8C607.4,279.2,608.5,279.6,609.7,279.6z M603.5,266.9
	c-4.2-1.5-8.4-2.8-12.6-4l-0.2,0.4c0-0.3-0.1-0.6-0.1-0.8l0.3,0.4c3.9-2.1,7.7-4.3,11.4-6.7C602.9,259.8,603.3,263.3,603.5,266.9z
	 M590.9,264.9c3.9,1.1,7.7,2.4,11.6,3.8c-3.7,1.8-7.4,3.5-11.1,5.1C591.3,270.8,591.1,267.8,590.9,264.9z M602.4,282.6
	c-3.8,1.4-7.7,2.7-11.6,3.8c0.3-2.9,0.4-5.9,0.5-8.9C595.1,279.1,598.8,280.8,602.4,282.6z M571.4,335.9l-86.9-58.1l96.6,40
	C578.4,324.2,575.1,330.2,571.4,335.9z M579.2,326.3c2.7,3,5.2,6.2,7.7,9.4c-4.1-0.4-8.1-1-12.1-1.7
	C576.4,331.5,577.8,328.9,579.2,326.3z M502.2,384.5c0.2,0,0.4-0.1,0.6-0.1l-0.2,0.2c2.4,3.7,5,7.3,7.7,10.9
	c-2.4,0.6-4.9,1.1-7.3,1.6c-0.3-2.6-0.7-5.5-1.1-8.5c0.3-1.3,0.5-2.6,0.8-3.9L502.2,384.5z M457.5,397c0.1-0.2,0.2-0.3,0.4-0.5
	c0,0.2,0,0.4-0.1,0.6C457.7,397.1,457.6,397,457.5,397z M389.8,336.7l86.9-58.1l-73.9,73.9C398,347.7,393.6,342.4,389.8,336.7z
	 M397.3,349.3c-3.7,1.4-7.6,2.6-11.5,3.7c1.8-3.6,3.8-7.1,5.9-10.5C393.5,344.9,395.3,347.1,397.3,349.3z M389.3,335.9
	c-3.8-5.7-7-11.7-9.7-18.1l96.6-40L389.3,335.9z M389.4,339.3c-3.9,0.9-7.8,1.7-11.8,2.4c2.2-3.4,4.6-6.6,7-9.7
	C386.1,334.5,387.7,337,389.4,339.3z M373.3,297.4L475.8,277l-96.6,40C376.7,310.7,374.7,304.2,373.3,297.4z M377.3,317.1
	c-4,0-8-0.1-12-0.4c2.9-2.8,6-5.4,9.1-7.9C375.2,311.6,376.2,314.4,377.3,317.1z M373.1,296.5c-1.3-6.6-2-13.4-2-20.4h104.5
	L373.1,296.5z M373.2,305.1c-4-0.4-7.9-1-11.9-1.7c3.2-2.4,6.6-4.7,9.9-6.8C371.8,299.4,372.5,302.3,373.2,305.1z M379.3,234.3
	l96.6,40l-102.5-20.4C374.7,247.1,376.7,240.5,379.3,234.3z M374.3,242.4c-3.1-2.5-6.1-5.1-9.1-7.9c4-0.3,8-0.4,12-0.4
	C376.2,236.9,375.2,239.6,374.3,242.4z M389.3,215.4l86.9,58.1l-96.6-40C382.3,227.1,385.5,221,389.3,215.4z M384.6,219.3
	c-2.4-3.1-4.8-6.4-7-9.7c4,0.7,7.9,1.4,11.8,2.4C387.7,214.3,386.1,216.8,384.6,219.3z M402.8,198.8l73.9,73.9l-86.9-58.1
	C393.6,208.9,398,203.6,402.8,198.8z M391.7,208.8c-2.1-3.4-4-6.9-5.9-10.5c3.9,1.1,7.7,2.3,11.5,3.7
	C395.3,204.2,393.5,206.4,391.7,208.8z M581.1,233.4l-96.6,40l86.9-58.1C575.1,221,578.4,227.1,581.1,233.4z M574.8,217.3
	c4-0.7,8-1.3,12.1-1.7c-2.5,3.3-5,6.4-7.7,9.4C577.8,222.3,576.4,219.8,574.8,217.3z M585.6,240.1c4,0.2,8.1,0.6,12.1,1.1
	c-3.1,2.6-6.4,5.1-9.7,7.5C587.3,245.8,586.5,242.9,585.6,240.1z M589.5,275.2H485l102.5-20.4C588.8,261.4,589.5,268.2,589.5,275.2z
	 M587.4,253.9l-102.5,20.4l96.6-40C584,240.5,586,247.1,587.4,253.9z M580.8,228.4c4-0.3,8.1-0.4,12.2-0.3c-2.8,3-5.7,5.8-8.7,8.5
	C583.3,233.8,582.1,231.1,580.8,228.4z M484,272.6l73.9-73.9c4.8,4.8,9.2,10.1,13,15.8L484,272.6z M483.3,272l58.1-86.9
	c5.7,3.8,11,8.2,15.8,13L483.3,272z M482.6,271.5l40-96.6c6.3,2.7,12.4,5.9,18.1,9.7L482.6,271.5z M501,405.5h-14.1
	c0-0.2,0-0.5,0-0.7c-0.1-1.2-0.5-2.2-1.1-3.1c4.1-0.2,8.2-0.5,12.2-1.1l0,0l0,0c0.3,0,0.5-0.1,0.8-0.1l0,0l0,0
	c0.4-0.1,0.7-0.1,1.1-0.2C500.3,402.2,500.7,403.9,501,405.5z M461.1,400.4c2.7,0.4,5.4,0.7,8.1,1l0,0l0,0c2.7,0.2,5.5,0.4,8.2,0.5
	c-0.6,0.9-1,1.9-1.1,3.1c0,0.2,0,0.4,0,0.6h-15.4c0.3-0.6,0.6-1.2,0.6-1.9C461.7,402.5,461.5,401.4,461.1,400.4z M459.5,382.8
	l0.9-4.3c-0.2,1.5-0.4,2.9-0.6,4.4C459.6,382.9,459.6,382.9,459.5,382.8z M489.7,386.3c0.2,0,0.4,0,0.5-0.1l-0.3,0.2
	c2,3.9,4.1,7.8,6.4,11.7c-3.5,0.5-7.1,0.8-10.8,0.9c1.6-4.2,3.1-8.4,4.4-12.6L489.7,386.3z M477,386.6c0.2,0,0.3,0,0.5,0l-0.3,0.1
	c1.5,4.1,3.2,8.3,5.1,12.3c-0.7,0-1.3,0-2,0c-3,0-5.9-0.1-8.8-0.3c2.1-4,4-8,5.8-12L477,386.6z M483.9,397.8
	c-1.7-3.7-3.3-7.4-4.7-11.1c0.4,0,0.8,0,1.2,0c2.6,0,5.1-0.1,7.7-0.3C486.8,390.2,485.4,394,483.9,397.8z M470.9,345.1
	c3.3-20,6-38.1,7.7-51.3c0.4,0.3,0.8,0.5,1.3,0.6v90.4c-5.4,0-10.7-0.4-15.8-1.2C466.2,372.5,468.5,359.3,470.9,345.1z M475.3,386.6
	c-1.6,3.7-3.4,7.3-5.3,10.9c-1.3-3.8-2.4-7.7-3.4-11.6C469.4,386.2,472.4,386.4,475.3,386.6z M497.8,396.6c-2.1-3.5-4.1-7-6-10.5
	c1.7-0.2,3.4-0.4,5.1-0.7c0.6,2.9,1.1,5.7,1.6,8.3C498.3,394.7,498.1,395.7,497.8,396.6z M480.8,384.8v-90.4
	c0.5-0.1,0.9-0.3,1.3-0.6c1.7,13.2,4.4,31.3,7.7,51.3c2.4,14.2,4.7,27.4,6.8,38.5C491.4,384.4,486.2,384.8,480.8,384.8z
	 M479.9,270.9l-20.4-102.5c6.6-1.3,13.4-2,20.4-2V270.9z M479,271.1l-40-96.6c6.3-2.6,12.8-4.6,19.6-5.9L479,271.1z M478.1,271.5
	L420,184.6c5.7-3.8,11.7-7,18.1-9.7L478.1,271.5z M477.3,272l-73.9-73.9c4.9-4.8,10.1-9.2,15.8-13L477.3,272z M378.8,230.6
	c-2.8-2.8-5.5-5.8-8.1-8.9c4,0.2,8,0.5,12,1C381.3,225.3,380,227.9,378.8,230.6z M475.6,275.2H371.1c0-7,0.7-13.8,2-20.4
	L475.6,275.2z M371.3,254.7c-3.4-2.1-6.7-4.4-9.9-6.8c4-0.7,7.9-1.3,11.9-1.7C372.5,249,371.8,251.9,371.3,254.7z M382.7,328.6
	c-3.9,0.5-7.9,0.8-12,1c2.6-3.1,5.3-6,8.1-8.9C380,323.4,381.3,326,382.7,328.6z M475,281.7c0.1,0.2,0.3,0.3,0.5,0.4l-56.2,84.1
	c-5.7-3.8-11-8.2-15.8-13L475,281.7z M476.6,280l0.7-0.7l-0.5,0.7C476.8,280,476.7,280,476.6,280z M465.7,344.3
	c-0.8,4.7-1.5,9.3-2.2,13.7l-4.9,24.7c-6.8-1.4-13.3-3.4-19.6-5.9l37.4-90.2C473.5,299.6,469.6,320.6,465.7,344.3z M459.4,384.7
	c-0.4,2.6-0.7,5-1,7.4c-0.7,1.1-1.5,2.3-2.3,3.4c-0.8-4-1.5-7.9-2.1-11.9C455.8,384,457.6,384.4,459.4,384.7z M463.2,388.1
	c0.5-0.8,0.9-1.6,1.4-2.4l-0.2-0.2c0.2,0,0.3,0,0.5,0.1l-0.3,0.1c1,4.3,2.2,8.6,3.6,12.8c-2.3-0.2-4.6-0.5-6.9-0.9
	C461.9,394.7,462.5,391.5,463.2,388.1z M501,382.9c-0.2-1.4-0.4-2.9-0.6-4.4l0.9,4.3C501.1,382.8,501,382.9,501,382.9z M483.3,279.3
	l0.7,0.7c-0.1,0-0.2,0-0.3,0L483.3,279.3z M485.7,281.7l71.5,71.5c-4.9,4.8-10.1,9.2-15.8,13l-56.2-84.1
	C485.4,281.9,485.6,281.8,485.7,281.7z M484,278.6l86.9,58.1c-3.8,5.7-8.2,11-13,15.8L484,278.6z M584.3,314.7
	c3,2.7,5.9,5.5,8.7,8.5c-4.1,0-8.2-0.1-12.2-0.3C582.1,320.2,583.3,317.5,584.3,314.7z M581.4,317l-96.6-40l102.5,20.4
	C586,304.2,584,310.7,581.4,317z M588.1,302.6c3.3,2.3,6.5,4.8,9.7,7.5c-4.1,0.5-8.1,0.9-12.1,1.1
	C586.5,308.3,587.3,305.5,588.1,302.6z M587.5,296.5L485,276.1h104.5C589.5,283.1,588.8,289.9,587.5,296.5z M590.4,290.2
	c3.5,2,7,4.1,10.4,6.3c-4,1-8,1.8-11.9,2.5C589.5,296.1,590,293.1,590.4,290.2z M588.9,252.3c4,0.7,8,1.5,11.9,2.5
	c-3.4,2.2-6.9,4.3-10.4,6.3C590,258.1,589.5,255.2,588.9,252.3z M601.7,252.9c-4.3-1-8.7-1.9-13-2.5l-0.1,0.4
	c-0.1-0.3-0.1-0.5-0.2-0.8l0.3,0.3c3.6-2.5,7.1-5.2,10.6-8C600.3,245.9,601.1,249.4,601.7,252.9z M598.4,239.3
	c-4.4-0.5-8.8-0.8-13.2-1l-0.1,0.5c-0.1-0.3-0.2-0.5-0.3-0.8c0.1,0.1,0.2,0.2,0.4,0.3c3.3-2.9,6.5-5.9,9.6-9.1
	C596.1,232.4,597.3,235.8,598.4,239.3z M593.5,226c-4.5,0-8.9,0.2-13.2,0.5v0.5c-0.1-0.2-0.2-0.5-0.4-0.7l0.4,0.3
	c2.9-3.2,5.8-6.6,8.5-10.2C590.4,219.5,592,222.8,593.5,226z M587.1,213.5c-4.4,0.5-8.8,1.2-13.1,2v0.4c-0.1-0.2-0.3-0.4-0.4-0.6
	l0.4,0.2c2.6-3.6,5-7.3,7.3-11.1C583.3,207.4,585.3,210.4,587.1,213.5z M572.7,214.1c-1.6-2.5-3.4-4.9-5.2-7.2
	c3.9-1.2,7.8-2.2,11.8-3.1C577.2,207.3,575,210.7,572.7,214.1z M572.5,193.4c2.4,2.7,4.7,5.4,6.8,8.3c-4.3,1-8.6,2.2-12.8,3.5
	c0,0.1,0,0.3,0.1,0.4c-0.2-0.2-0.3-0.4-0.5-0.6l0.4,0.1C568.6,201.4,570.6,197.5,572.5,193.4z M565.1,203.9c-1.9-2.3-3.9-4.4-6-6.5
	c3.7-1.6,7.5-3.1,11.3-4.4C568.8,196.7,567,200.4,565.1,203.9z M567.7,188.3c0.9,0.9,1.7,1.8,2.6,2.6c-4.2,1.5-8.3,3.1-12.3,4.9
	l0.1,0.4c-0.2-0.2-0.4-0.3-0.5-0.5l0.4,0.1c1.7-4.1,3.2-8.2,4.6-12.4C564.3,185,566,186.6,567.7,188.3z M556.4,194.7
	c-2.2-2-4.4-4-6.7-5.8c3.5-2,7.1-3.9,10.8-5.7C559.2,187.2,557.9,191,556.4,194.7z M551.5,174.7c2.9,2.1,5.8,4.3,8.5,6.6
	c-4,2-7.9,4.1-11.7,6.3l0.1,0.4c-0.2-0.1-0.4-0.3-0.6-0.4l0.4,0.1C549.5,183.4,550.6,179,551.5,174.7z M546.7,186.6
	c-2.4-1.8-4.8-3.4-7.3-5c3.2-2.4,6.6-4.7,10-6.8C548.6,178.7,547.7,182.7,546.7,186.6z M539.5,167.2c3.2,1.7,6.2,3.6,9.2,5.6
	c-3.8,2.4-7.4,4.9-10.9,7.6l0.2,0.3c-0.2-0.1-0.4-0.2-0.6-0.3h0.4C538.6,176.1,539.1,171.7,539.5,167.2z M536.1,179.6
	c-2.5-1.5-5.1-2.9-7.8-4.1c2.9-2.7,6-5.4,9.2-7.9C537.2,171.6,536.7,175.6,536.1,179.6z M526.6,174.5c0.2-4.4,0.3-8.8,0.1-13.3
	c3.3,1.4,6.6,2.9,9.8,4.5C533.1,168.5,529.8,171.4,526.6,174.5c0.1,0.1,0.1,0.2,0.2,0.3c-0.2-0.1-0.4-0.2-0.6-0.3H526.6z
	 M524.8,161.7c0.2,4.1,0.2,8.1,0,12.1c-2.7-1.2-5.4-2.3-8.2-3.2C519.2,167.6,521.9,164.6,524.8,161.7z M523.7,160
	c-3.1,3.2-6.1,6.5-8.9,9.9l0.2,0.3c-0.2-0.1-0.4-0.1-0.6-0.2l0.4-0.1c-0.3-4.4-0.7-8.8-1.4-13.2C516.9,157.6,520.3,158.7,523.7,160z
	 M521.7,174.6l-40,96.6l20.4-102.5C508.9,170,515.4,172,521.7,174.6z M480.8,270.9V166.4c7,0,13.8,0.7,20.4,2L480.8,270.9z
	 M512.9,169.5c-2.8-0.9-5.6-1.6-8.5-2.2c2.2-3.3,4.6-6.6,7.1-9.8C512.1,161.4,512.6,165.4,512.9,169.5z M510.2,155.8
	c-2.7,3.5-5.3,7.2-7.7,10.9l0.2,0.2c-0.2,0-0.4-0.1-0.6-0.1l0.3-0.1c-0.8-4.3-1.8-8.7-2.9-13C503.2,154.2,506.7,154.9,510.2,155.8z
	 M500.6,166.4c-2.9-0.5-5.8-1-8.7-1.3c1.8-3.6,3.8-7.1,6-10.5C498.9,158.6,499.8,162.5,500.6,166.4z M496.4,153.2
	c-2.3,3.8-4.5,7.7-6.4,11.7l0.3,0.2c-0.2,0-0.4,0-0.5,0l0.3-0.1c-1.3-4.2-2.7-8.4-4.4-12.6C489.2,152.4,492.8,152.7,496.4,153.2z
	 M483.9,153.5c1.5,3.8,2.9,7.6,4.1,11.4c-2.5-0.2-5.1-0.3-7.7-0.3c-0.4,0-0.8,0-1.2,0C480.6,160.9,482.2,157.2,483.9,153.5z
	 M480.3,152.1c0.7,0,1.3,0,2,0c-1.9,4.1-3.6,8.2-5.1,12.3l0.3,0.1c-0.2,0-0.3,0-0.5,0l0.3-0.2c-1.7-4.1-3.7-8.1-5.8-12
	C474.4,152.2,477.4,152.1,480.3,152.1z M470,153.9c1.9,3.6,3.7,7.2,5.3,10.9c-3,0.1-5.9,0.4-8.8,0.7
	C467.5,161.6,468.7,157.7,470,153.9z M468.2,152.7c-1.4,4.3-2.6,8.5-3.6,12.8l0.3,0.1c-0.2,0-0.3,0-0.5,0.1l0.2-0.2
	c-2.2-3.8-4.6-7.6-7.1-11.3C461,153.6,464.6,153.1,468.2,152.7z M462.7,166c-2.9,0.5-5.8,1-8.6,1.7c0.5-4,1.2-7.9,2.1-11.9
	C458.5,159.2,460.6,162.6,462.7,166z M454.3,154.9c-0.9,4.4-1.6,8.8-2.2,13.2l0.2,0.1c-0.1,0-0.3,0.1-0.4,0.1
	c0.1-0.1,0.1-0.1,0.2-0.2c-2.6-3.6-5.4-7-8.4-10.4C447.2,156.6,450.7,155.7,454.3,154.9z M442.6,159.4c2.7,3,5.2,6.2,7.7,9.3
	c-2.8,0.8-5.6,1.7-8.4,2.7C442,167.4,442.3,163.4,442.6,159.4z M440.7,158.6c-0.4,4.5-0.6,8.9-0.6,13.4c0.1,0,0.2,0,0.2,0
	c-0.1,0.1-0.3,0.1-0.4,0.1l0.1-0.2c-3-3.2-6.2-6.4-9.5-9.4C433.9,161.1,437.3,159.8,440.7,158.6z M438.3,172.8
	c-2.7,1.1-5.4,2.3-8,3.6c-0.4-4-0.6-8-0.7-12C432.7,167.1,435.5,169.9,438.3,172.8z M427.6,163.9c0.1,4.5,0.4,8.9,0.9,13.3h0.2
	c-0.1,0.1-0.2,0.1-0.3,0.2l0.1-0.2c-3.4-2.9-6.9-5.6-10.5-8.3C421.1,167.2,424.3,165.5,427.6,163.9z M426.9,178.3
	c-2.6,1.4-5.1,2.9-7.5,4.5c-0.8-3.9-1.5-7.9-2-11.9C420.6,173.3,423.8,175.8,426.9,178.3z M415.2,170.7c0.6,4.5,1.4,8.8,2.4,13.2
	c0.1,0,0.1,0,0.2,0c-0.1,0.1-0.2,0.1-0.3,0.2l0.1-0.2c-3.7-2.5-7.5-4.8-11.4-7C409.2,174.6,412.1,172.6,415.2,170.7z M416.1,185
	c-2.4,1.7-4.7,3.5-6.9,5.4c-1.3-3.8-2.4-7.6-3.4-11.6C409.3,180.8,412.8,182.9,416.1,185z M403.7,178.8c1.1,4.4,2.4,8.6,3.9,12.8
	h0.2c-0.1,0.1-0.2,0.1-0.2,0.2l0.1-0.2c-3.9-2-8-3.9-12.1-5.7C398.1,183.4,400.9,181,403.7,178.8z M406.2,193c-2.2,2-4.3,4-6.3,6.1
	c-1.7-3.6-3.2-7.3-4.7-11.1C399,189.5,402.6,191.2,406.2,193z M393,188.3c0.1-0.1,0.1-0.1,0.2-0.2c1.6,4.2,3.4,8.3,5.3,12.3
	c0.1,0,0.1,0,0.2-0.1c-0.1,0.1-0.1,0.1-0.2,0.2v-0.2c-4.1-1.6-8.4-3-12.7-4.3C388.1,193.5,390.5,190.8,393,188.3z M383.8,198.7
	c2.1,4,4.3,7.9,6.7,11.6l0.2-0.1c-0.1,0.1-0.1,0.2-0.2,0.2v-0.2c-4.3-1.1-8.7-2-13.1-2.8C379.3,204.4,381.5,201.5,383.8,198.7z
	 M375.6,210.2c2.5,3.7,5.2,7.3,8,10.8c0,0,0.1,0,0.1-0.1c0,0.1-0.1,0.2-0.1,0.2v-0.2c-4.4-0.6-8.9-1-13.4-1.3
	C371.9,216.4,373.7,213.3,375.6,210.2z M368.8,222.5c2.9,3.4,6,6.7,9.2,9.8l0.1-0.1c0,0.1-0.1,0.1-0.1,0.2v-0.1
	c-4.4-0.1-8.9,0-13.4,0.2C365.8,229.2,367.2,225.8,368.8,222.5z M363.5,235.6c3.3,3.1,6.7,6,10.2,8.7l0.1-0.1c0,0.1,0,0.2-0.1,0.2
	v-0.1c-4.4,0.4-8.9,1-13.3,1.8C361.3,242.5,362.3,239,363.5,235.6z M359.7,249.2c3.7,2.7,7.4,5.1,11.2,7.5l0.1-0.1
	c0,0.1,0,0.1,0,0.2v-0.1c-4.4,0.9-8.7,2-13,3.3C358.3,256.3,358.9,252.7,359.7,249.2z M369.6,267.3c-3.6-1.7-7.1-3.6-10.6-5.6
	c3.9-1.2,7.7-2.2,11.6-3.1C370.2,261.5,369.8,264.4,369.6,267.3z M370.6,292.7c-3.9-0.9-7.7-1.9-11.6-3.1c3.5-2,7-3.9,10.6-5.6
	C369.8,286.9,370.2,289.8,370.6,292.7z M357.5,263.1c3.9,2.2,7.9,4.3,12,6.1c0,0,0-0.1,0.1-0.1c0,0.1,0,0.1,0,0.2l-0.1-0.1
	c-4.2,1.4-8.4,3-12.6,4.8C356.9,270.4,357.1,266.7,357.5,263.1z M369.4,280c-3.8-1.3-7.5-2.8-11.2-4.4c3.7-1.6,7.4-3.1,11.2-4.4
	c-0.1,1.5-0.1,2.9-0.1,4.4C369.3,277.1,369.3,278.6,369.4,280z M357.5,288.1c-0.4-3.6-0.6-7.2-0.6-10.9c4.2,1.8,8.3,3.4,12.6,4.8
	l0.1-0.1c0,0.1,0,0.1,0,0.2c0,0,0-0.1-0.1-0.1C365.4,283.9,361.4,285.9,357.5,288.1z M357.8,291.3c4.3,1.3,8.7,2.4,13,3.3v-0.1
	c0,0.1,0,0.1,0,0.2l-0.1-0.1c-3.8,2.3-7.5,4.8-11.2,7.5C358.9,298.5,358.3,294.9,357.8,291.3z M360.4,305.2
	c4.4,0.8,8.9,1.4,13.3,1.8v-0.1c0,0.1,0,0.2,0.1,0.2l-0.1-0.1c-3.5,2.7-6.9,5.6-10.2,8.7C362.3,312.2,361.3,308.7,360.4,305.2z
	 M364.5,318.7c4.5,0.3,9,0.3,13.4,0.2v-0.1c0,0.1,0.1,0.1,0.1,0.2l-0.1-0.1c-3.2,3.1-6.2,6.4-9.2,9.8
	C367.2,325.5,365.8,322.1,364.5,318.7z M375.6,341.1c-1.9-3.1-3.7-6.2-5.4-9.5c4.5-0.3,9-0.7,13.4-1.3v-0.2c0,0.1,0.1,0.2,0.1,0.2
	l-0.1-0.1C380.8,333.8,378.1,337.4,375.6,341.1z M377.3,343.8c4.4-0.8,8.8-1.7,13.1-2.8v-0.2c0.1,0.1,0.1,0.2,0.2,0.2l-0.2-0.1
	c-2.4,3.7-4.6,7.6-6.7,11.6C381.5,349.8,379.4,346.8,377.3,343.8z M393.2,363.1c-0.1-0.1-0.1-0.1-0.2-0.1c-2.5-2.5-4.9-5.1-7.2-7.9
	c4.3-1.3,8.6-2.7,12.7-4.3v-0.2c0.1,0.1,0.1,0.1,0.2,0.2c-0.1,0-0.1,0-0.2-0.1C396.6,354.8,394.8,358.9,393.2,363.1z M399.9,352.2
	c2,2.1,4.1,4.2,6.3,6.1c-3.6,1.8-7.2,3.4-11,5C396.7,359.5,398.2,355.8,399.9,352.2z M395.5,365.4c4.1-1.7,8.2-3.6,12.1-5.7
	l-0.1-0.2c0.1,0.1,0.2,0.1,0.2,0.2h-0.2c-1.5,4.2-2.8,8.5-3.9,12.8C400.9,370.2,398.1,367.9,395.5,365.4z M409.2,360.9
	c2.2,1.9,4.6,3.7,6.9,5.4c-3.3,2.2-6.8,4.2-10.3,6.2C406.8,368.5,407.9,364.7,409.2,360.9z M406.3,374.5c3.9-2.2,7.7-4.5,11.4-7
	l-0.1-0.2c0.1,0.1,0.2,0.1,0.3,0.2c-0.1,0-0.1,0-0.2,0c-1,4.3-1.8,8.7-2.4,13.2C412.1,378.7,409.2,376.6,406.3,374.5z M419.3,368.4
	c2.4,1.6,4.9,3.1,7.5,4.5c-3.1,2.5-6.3,5-9.6,7.3C417.8,376.3,418.5,372.3,419.3,368.4z M428.5,374c-0.5,4.4-0.8,8.9-0.9,13.3
	c-3.3-1.6-6.5-3.2-9.6-5.1C421.7,379.6,425.2,376.9,428.5,374l-0.1-0.2c0.1,0.1,0.2,0.1,0.3,0.2H428.5z M420.1,366.7l56.4-84.4
	c0.2,0,0.3,0,0.5,0h0.1l-38.9,94C431.8,373.7,425.7,370.4,420.1,366.7z M429.6,386.8c0.1-4.1,0.3-8.1,0.7-12c2.6,1.3,5.3,2.5,8,3.6
	C435.5,381.3,432.7,384.1,429.6,386.8z M430.6,388.7c3.3-3,6.5-6.2,9.5-9.4l-0.1-0.2c0.1,0.1,0.3,0.1,0.4,0.1c-0.1,0-0.2,0-0.2,0
	c0,4.4,0.2,8.9,0.6,13.4C437.3,391.5,433.9,390.2,430.6,388.7z M441.9,379.9c2.7,1,5.5,1.9,8.4,2.7c-2.4,3.2-5,6.3-7.7,9.3
	C442.3,387.9,442,383.9,441.9,379.9z M443.8,393.6c2.9-3.4,5.7-6.9,8.4-10.4c-0.1-0.1-0.1-0.1-0.2-0.2c0.1,0,0.3,0.1,0.4,0.1
	l-0.2,0.1c0.5,4.4,1.3,8.8,2.2,13.2C450.7,395.6,447.2,394.7,443.8,393.6z M511.5,393.9c-2.5-3.2-4.9-6.5-7.1-9.8
	c2.9-0.6,5.7-1.4,8.5-2.2C512.6,385.8,512.1,389.8,511.5,393.9z M502.1,382.7l-4.9-24.7c-0.7-4.4-1.4-9-2.2-13.7
	c-3.9-23.7-7.8-44.7-10.6-57.8l37.4,90.3C515.4,379.3,508.9,381.3,502.1,382.7z M513.4,394.7c0.6-4.4,1.1-8.8,1.4-13.2l-0.4-0.1
	c0.2-0.1,0.4-0.1,0.6-0.2l-0.2,0.3c2.8,3.4,5.8,6.7,8.9,9.9C520.3,392.6,516.9,393.7,513.4,394.7z M524.8,389.6
	c-2.9-2.9-5.6-5.9-8.2-8.9c2.8-1,5.5-2,8.2-3.2C524.9,381.4,524.9,385.5,524.8,389.6z M522.6,376.4l-38.9-94h0.1c0.2,0,0.3,0,0.5,0
	l56.4,84.4C534.9,370.4,528.9,373.7,522.6,376.4z M526.8,390.1c0.1-4.5,0.1-8.9-0.1-13.3h-0.4c0.2-0.1,0.4-0.2,0.6-0.3
	c-0.1,0.1-0.1,0.2-0.2,0.3c3.2,3,6.5,6,10,8.8C533.4,387.3,530.1,388.7,526.8,390.1z M528.3,375.8c2.7-1.3,5.3-2.7,7.8-4.1
	c0.6,4,1.1,8,1.4,12.1C534.3,381.2,531.2,378.6,528.3,375.8z M539.5,384.1c-0.4-4.5-0.9-8.9-1.7-13.2h-0.4c0.2-0.1,0.4-0.2,0.6-0.3
	l-0.2,0.3c3.5,2.7,7.1,5.2,10.9,7.6C545.7,380.5,542.7,382.3,539.5,384.1z M539.4,369.7c2.5-1.6,4.9-3.2,7.3-5
	c1.1,3.9,2,7.8,2.7,11.8C546,374.4,542.6,372.1,539.4,369.7z M551.5,376.6c-0.9-4.4-1.9-8.7-3.2-12.9l-0.4,0.1
	c0.2-0.1,0.4-0.3,0.6-0.4l-0.1,0.4c3.8,2.2,7.7,4.3,11.7,6.3C557.3,372.3,554.4,374.5,551.5,376.6z M549.7,362.3
	c2.3-1.8,4.5-3.8,6.7-5.8c1.5,3.7,2.9,7.6,4.1,11.5C556.8,366.2,553.2,364.4,549.7,362.3z M567.7,363c-1.7,1.7-3.4,3.3-5.2,4.9
	c-1.4-4.2-2.9-8.4-4.6-12.5l-0.4,0.1c0.2-0.2,0.3-0.3,0.5-0.5l-0.1,0.4c4,1.8,8.1,3.4,12.3,4.9C569.4,361.2,568.5,362.1,567.7,363z
	 M559.1,353.9c2.1-2.1,4.1-4.3,6-6.5c1.9,3.6,3.7,7.2,5.4,10.9C566.6,356.9,562.8,355.5,559.1,353.9z M572.5,357.9
	c-1.8-4.1-3.8-8-6-11.8l-0.4,0.1c0.2-0.2,0.3-0.4,0.5-0.6c0,0.1,0,0.3-0.1,0.4c4.2,1.3,8.5,2.5,12.8,3.5
	C577.1,352.4,574.9,355.2,572.5,357.9z M567.5,344.4c1.8-2.3,3.6-4.7,5.2-7.2c2.3,3.3,4.5,6.7,6.6,10.3
	C575.3,346.6,571.4,345.6,567.5,344.4z M581.3,346.8c-2.3-3.8-4.7-7.5-7.3-11.1l-0.4,0.2c0.1-0.2,0.3-0.4,0.4-0.6v0.4
	c4.3,0.9,8.7,1.5,13.1,2C585.3,340.9,583.3,343.9,581.3,346.8z M588.7,334.9c-2.7-3.5-5.5-6.9-8.5-10.2l-0.4,0.3
	c0.1-0.2,0.2-0.5,0.4-0.7v0.5c4.4,0.4,8.8,0.5,13.2,0.5C592,328.5,590.4,331.7,588.7,334.9z M594.8,322.1c-3.1-3.2-6.3-6.2-9.6-9.1
	c-0.1,0.1-0.2,0.2-0.4,0.3c0.1-0.3,0.2-0.5,0.3-0.8l0.1,0.5c4.4-0.1,8.8-0.5,13.2-1C597.3,315.5,596.1,318.8,594.8,322.1z
	 M599.3,308.8c-3.4-2.8-7-5.5-10.6-8l-0.3,0.3c0.1-0.3,0.1-0.5,0.2-0.8l0.1,0.4c4.3-0.7,8.7-1.5,13-2.5
	C601.1,301.9,600.3,305.4,599.3,308.8z M602.3,295c-3.7-2.4-7.6-4.6-11.4-6.7l-0.3,0.4c0-0.3,0.1-0.5,0.1-0.8l0.2,0.4
	c4.2-1.1,8.4-2.5,12.6-4C603.3,288,602.9,291.5,602.3,295z M603.7,281c-4-2-8-3.8-12.1-5.4l-0.2,0.4c0-0.1,0-0.3,0-0.4s0-0.3,0-0.4
	l0.2,0.4c4.1-1.6,8.1-3.4,12.1-5.4c0.1,1.8,0.1,3.6,0.1,5.4C603.8,277.4,603.8,279.2,603.7,281z"/>
</svg>
